<?xml version="1.0" ?><!DOCTYPE svg  PUBLIC '-//W3C//DTD SVG 1.1//EN'  'http://www.w3.org/Graphics/SVG/1.1/DTD/svg11.dtd'><svg enable-background="new 0 0 144.083 144" height="144px" id="Pinterest" version="1.1" viewBox="0 0 144.083 144" width="144.083px" xml:space="preserve" xmlns="http://www.w3.org/2000/svg" xmlns:xlink="http://www.w3.org/1999/xlink"><path d="M72.04,11.166c-33.543,0-60.833,27.29-60.833,60.834s27.29,60.834,60.833,60.834c33.544,0,60.835-27.29,60.835-60.834  S105.584,11.166,72.04,11.166z M72.04,126.834c-30.235,0-54.833-24.599-54.833-54.834S41.805,17.166,72.04,17.166  c30.237,0,54.835,24.599,54.835,54.834S102.277,126.834,72.04,126.834z"/><path d="M83.604,37.343c-16.462-3.048-24.794,1.626-29.597,5.285c-4.802,3.658-10.213,10.289-9.755,21.874  c0.457,11.586,9.907,13.262,9.907,13.262s1.067-2.059,1.296-3.43c0.229-1.373,0.152-2.744-1.524-5.107  c-3.353-5.335-0.686-14.938,2.896-18.444c3.397-3.326,8.536-8.079,19.664-7.317c13.197,0.904,13.033,15.701,13.033,15.701  C89.372,68.389,88,71.056,84.493,76.926c-4.344,5.791-12.042,4.115-13.489,2.057c-2.363-3.658,0.457-10.365,2.133-17.225  c1.678-6.859-0.381-7.698-1.524-8.765c-1.144-1.067-7.012-2.591-10.137,4.116c-3.125,6.706,0.076,12.804,0.076,12.804  s-0.99,4.345-3.507,13.642c-2.515,9.299-3.353,19.818-2.058,24.086c3.583-2.135,6.098-6.783,7.927-11.51  c1.829-4.725,3.049-12.271,3.43-12.576c0.609,0.764,5.03,3.432,5.03,3.432c3.43,1.676,9.375,1.676,14.938-1.068  c5.564-2.744,11.586-12.347,12.271-20.578C101.336,49.64,94.477,40.291,83.604,37.343z"/></svg>